
<svg xmlns="http://www.w3.org/2000/svg" xmlns:xlink="http://www.w3.org/1999/xlink" width="2000" height="895" fill="currentColor">
      <defs>
    <linearGradient id="myGradient" gradientTransform="rotate(65)">
      <!-- <stop offset="20%" stop-color="hsl(263.4, 70%, 50.4%)" /> -->
      <stop offset="30%" stop-color="hsl(263.4, 70%, 50.4%)" />
      <stop offset="80%" stop-color="hsl(211.4, 96%, 70.4%)" />
    </linearGradient>
  </defs>
     <g>
	<path d="M602.47 72.6741C604.464 72.2567 605.773 72.0704 607.731 72.714C604.869 87.257 604.593 102.254 603.073 116.966L594.663 192.886C593.057 208.668 592.753 224.292 588.388 239.643C570.616 241.135 553.148 246.367 535.223 243.015L515.479 214.139L306.176 268.906L324.712 360.117L369.56 351.775C369.359 344.791 366.996 338.261 365.637 331.457L359.935 297.615L448.853 280.359L442.429 372.842L440.805 396.748C440.709 398.942 440.005 403.012 440.501 405.051C440.609 405.495 441.585 406.546 441.895 406.972C446.403 407.124 450.326 406.928 454.526 405.147C457.871 403.729 459.066 400.123 460.377 396.92C466.139 382.849 469.792 367.446 474.097 352.853C482.418 324.647 490.669 296.39 501.568 269.05C505.585 267.101 510.78 266.594 515.156 265.835L548.34 261.563L683.92 250.457C680.284 247.14 675.432 244.663 671.387 241.779C662.733 235.608 654.739 227.386 649.952 217.833C644.594 207.139 645.43 194.507 649.131 183.424C654.395 167.663 671.595 155.737 685.859 148.653C724.886 129.269 777.959 128.843 818.682 142.74C836.675 148.88 859.411 161.418 868.019 179.152C873.54 190.526 874.446 202.146 870.207 214.109C863.399 233.323 844.436 244.73 826.896 253.015C785.203 272.708 731.527 267.947 689.369 252.812L661.966 293.746C666.921 295.12 673.344 294.426 678.458 294.251L704.117 293.789L841.394 292.845L834.452 265.777L960.818 246.48L911.569 102.219C925.543 99.5534 940.339 99.4629 954.529 98.3046L1033.01 91.8999L996.402 244.569L1114.92 220.704L1135.9 305.543L1181.51 172.186L1269.93 207.861L1263.44 135.278L1372.99 153.54L1342.17 248.027C1334.09 271.985 1327.41 296.603 1316.6 319.502C1302.33 319.453 1288.21 319.631 1274.7 314.399C1270.41 305.788 1270.72 295.072 1270.57 285.69C1270.52 282.784 1271.01 278.533 1269.93 275.864L1226.94 276.493L1211.19 345.532L1278.15 358.59L1279.42 396.031L1246.2 386.97C1240.63 388.336 1211.5 427.981 1205.96 434.916C1216.88 445.736 1227.53 459.715 1240.93 467.463C1252.59 460.698 1266.56 453.84 1276.09 444.252C1284.26 436.047 1287.32 424.544 1291.32 413.991L1304.12 381.03C1307.88 371.792 1312.31 362.958 1317.09 354.216L1497.75 385.351L1476 293.901L1433.22 306.253C1427.9 297.966 1425.57 287.493 1422.14 278.311L1398.41 214.183L1447.52 213.643L1433.87 173.894C1437.18 172.679 1442.14 173.049 1445.74 172.89L1471.43 171.765L1566.84 167.667L1566.95 220.862L1810.84 191.942L1634.3 410.985L1811.22 377.647L1760.61 366.006C1755.93 364.924 1747.69 364.121 1743.76 361.667L1788.31 313.658C1798.92 316.637 1808.24 321.583 1818.07 326.417L1850.3 341.95C1879.84 356.229 1909.89 369.052 1938.17 385.803L1853.07 507.406L1741.97 478.903C1752.59 468.969 1765.55 462.105 1777.94 454.669L1819.89 429.506L1809.2 429.602L1676.76 436.479L1635.03 438.938C1628 439.361 1619.56 439.041 1612.86 440.986C1604.03 443.552 1599.71 449.136 1593.74 455.593L1599.06 493.735L1641.48 497.249C1652.33 498.147 1662.66 498.16 1673.06 501.782C1679.79 511.122 1682.91 523.267 1685.77 534.261L1694.55 567.834L1392.3 676.802L1395.53 604.678L1348.06 647.538C1335.8 658.614 1324.95 673.521 1309.5 680.241C1293.81 671.481 1280.02 654.973 1266.64 642.967C1255.86 633.297 1178.19 566.101 1176.15 559.752C1176.37 559.344 1176.91 558.037 1177.22 557.8C1179.74 555.883 1187.65 554.596 1190.87 553.541L1215.27 544.744C1220.97 542.744 1227.34 541.13 1232.66 538.277C1240.32 536.535 1247.98 533.337 1255.39 530.719L1293.75 517.101L1392.36 481.763L1397.7 430.591L1329.83 425.32C1341.28 442.422 1351.84 458.895 1360.19 477.801L975.609 593.518C994.852 596.787 1013.89 602.841 1033.13 606.509L1140.35 626.652L1178.09 633.606C1188.44 635.473 1198.81 636.745 1208.46 641.15L1208.08 695.691L1079.1 705.97L1043.4 708.86C1040.43 709.138 1037.61 710.193 1034.67 710.415L989.957 712.92L919.624 718.385C905.297 719.464 886.453 723.147 872.54 719.574C849.577 713.677 827.338 699.638 805.793 689.723L658.822 623.013L851.853 580.212L636.214 551.18L748.314 432.422L682.534 430.032L716.77 353.256C697.178 357.22 679.413 364.753 660.841 371.859L646.91 333.856C644.622 336.087 642.659 340.688 641.006 343.53L627.895 365.951L573.069 458.615C563.999 473.918 552.87 488.723 545.461 504.859L566.66 513.684L636.954 437.085C642.751 443.483 647.025 451.628 651.585 458.942L675.793 498.894L560.675 563.399C549.646 560.063 540.177 555.243 529.69 550.705L468.594 524.163L551.725 360.977L522.41 351.968L450.503 458.492C442.259 468.42 419.417 467.625 407.248 468.676C401.612 460.314 398.324 450.326 394.441 441.079L375.863 397.436L333.171 413.32L357.714 552.303C370.971 555.972 385.608 555.647 399.289 557.049L537.566 570.785C550.227 572.089 563.123 572.109 575.724 573.792C579.91 574.351 586.432 575.495 589.913 577.741C597.573 582.682 599.539 599.081 601.168 607.453L230.949 680.406L330.802 711.354C327.663 718.9 325.936 727.573 323.805 735.481L315.324 765.835C313.971 771.228 313.624 783.059 310.354 787.166C309.696 787.993 308.43 788.863 307.617 789.579C304.361 789.846 301.28 789.98 298.217 788.686C292.335 786.202 286.96 782.266 281.275 779.307L237.77 757.282L100.296 689.232L140.174 551.55C150.002 550.894 159.71 552.64 169.434 553.833L210.109 558.828C221.077 560.188 234.437 560.346 244.89 563.533L206.56 629.483L435.914 598.423L374.824 590.082C351.503 587.853 326.972 586.967 304.203 581.468L303.544 581.316C300.424 580.466 296.29 572.869 294.735 570.14C289.387 560.755 285.444 550.492 280.611 540.821L240.51 462.759L185.606 506.09C179.065 511.329 171.919 518.37 164.695 522.519C162.308 523.89 159.946 524.506 157.201 524.474C148.271 517.054 141.386 504.99 134.629 495.538C126.646 484.369 117.908 473.611 111.107 461.666C112.404 459.479 209.521 419.736 220.121 415.897L190.667 330.21L117.624 398.193C95.4607 375.601 74.9454 347.561 57.2878 321.332C66.5921 315.312 76.7559 311.983 86.5966 307.122C113.653 293.759 140.353 280.022 168.599 269.275L119.864 185.137C128.521 181.834 137.144 179.293 146.148 177.104L179.806 170.427L253.598 154.372L280.083 148.601C283.626 147.821 288.146 146.055 291.731 146.253L295.465 207.102L481.468 142.999L457.465 92.1758L602.47 72.6741ZM1106.49 357.721C1106.26 370.109 1071.25 456.013 1063.19 463.586C1056.77 469.622 1045.12 470.797 1036.84 472.299L1013.78 476.982L957.062 489.682C949.336 491.336 941.584 492.77 934.034 495.139C932.105 495.745 928.879 496.378 927.323 497.618L1089.6 502.403L1188.55 505.155L1106.64 416.876L1149.38 400.194C1157.53 397.049 1166.63 394.438 1174.19 390.072C1177.82 387.976 1182.1 384.929 1183.93 381.016L1185.29 377.235L1183.89 374.431L1106.49 357.721ZM868.68 431.841L868.566 432.181C867.728 434.317 865.246 435.761 863.472 437.105L845.585 449.707L733.555 523.715L852.539 554.357C869.568 558.895 887.166 566.342 904.798 567.957C923.139 569.636 941.649 563.763 959.549 560.374C967.267 558.912 978.535 558.075 985.562 554.721L1062.19 541.104C1052.71 539.49 1043.39 538.415 1033.78 537.99L979.975 537.333L882.957 535.761L843.356 535.453C839.484 535.428 832.597 536.364 829.187 534.828L813.434 495.058L888.47 467.923L875.591 432.761C873.067 431.792 871.355 431.651 868.68 431.841ZM1506.21 431.89C1507.1 436.305 1504.22 442.238 1502.72 446.509L1484.82 492.074L1455.52 572.3L1447.18 595.084C1446.2 597.679 1443.95 601.809 1443.92 604.527L1484.55 588.856C1492.7 585.808 1501.69 583.405 1508.98 578.506C1523.63 575.373 1538.11 568.116 1552.09 562.713L1599.99 544.492L1529.34 524.167C1526.33 514.432 1523.86 504.867 1521.93 494.851L1514.84 451.382C1514.09 446.671 1513.43 437.222 1511.05 433.298C1510.86 432.997 1509.62 432.352 1509.26 432.116L1506.21 431.89ZM939.987 317.328C941.464 319.011 942.165 320.53 942.444 322.764C943.732 333.078 942.472 343.683 942.446 354.042L942.822 434.854L976.037 421.812C979.816 420.391 988.172 418.317 990.471 414.991C995.197 413.732 1000.52 412.21 1004.49 409.273L1011.71 316.909L939.987 317.328ZM925.341 609.523L831.685 642.293C844.845 647.521 859.166 654.138 873.114 656.553C882.262 658.137 892.61 656.232 901.803 655.255L943.575 650.694L1045.55 639.167L982.32 622.096L957.324 615.401C946.797 612.256 936.513 608.083 925.341 609.523ZM1387.59 512.901L1303.99 553.462C1305.59 558.074 1319.48 600.141 1318.95 602.699C1318.77 603.571 1318.06 604.796 1317.7 605.641C1319.83 609.036 1320.48 609.72 1323.97 611.672L1366.73 575.434C1376.73 567.102 1388.73 559.215 1396.51 548.753C1395.78 537.108 1396.25 523.416 1391.21 512.808L1387.59 512.901ZM841.457 310.673L777.736 391.899C791.076 395.455 805.312 394.69 818.725 397.623L875.331 404.814L852.309 340.281L845.084 319.872C844.11 317.185 843.145 312.93 841.457 310.673ZM1569.1 294.271C1571.72 297.083 1572.29 298.213 1573.05 302.061C1575.02 312.005 1574.16 322.476 1575.02 332.554L1581.33 400.925C1586.55 393.873 1610.49 365.287 1610.18 358.691C1617.98 353.82 1622.72 345.052 1628.1 337.795L1652.6 305.253C1648.8 303.793 1643.93 303.696 1639.86 303.143L1614.76 299.734L1585.01 295.371C1579.86 294.653 1574.27 293.374 1569.1 294.271Z" fill="url('#myGradient')"/>
	</g>

</svg>
